<?xml version="1.0" encoding="UTF-8"?>
<svg version="1.1" xmlns="http://www.w3.org/2000/svg" width="1024" height="1024">
<path d="M0 0 C337.92 0 675.84 0 1024 0 C1024 337.92 1024 675.84 1024 1024 C686.08 1024 348.16 1024 0 1024 C0 686.08 0 348.16 0 0 Z " fill="#F8F7F3" transform="translate(0,0)"/>
<path d="M0 0 C0.83592176 -0.00725433 1.67184353 -0.01450866 2.53309625 -0.02198282 C3.45327368 -0.01467347 4.37345111 -0.00736413 5.3215127 0.00016671 C6.30164381 -0.00389401 7.28177491 -0.00795474 8.29160696 -0.01213852 C11.60786173 -0.02216114 14.92370091 -0.01061346 18.23994684 0.00067502 C20.62865915 -0.00206291 23.01737025 -0.0061127 25.40607834 -0.01136863 C30.61604853 -0.01977753 35.82593144 -0.01878772 41.03589678 -0.0096361 C48.7831221 0.00393514 56.5302731 0.00040781 64.27750374 -0.00659471 C78.11180005 -0.01853871 91.94605088 -0.01342335 105.78034468 -0.00131643 C117.88673001 0.0092066 129.99309982 0.01376075 142.09948969 0.01238805 C143.30256948 0.012262 143.30256948 0.012262 144.52995391 0.01213341 C147.78548874 0.01178118 151.04102356 0.01139718 154.29655839 0.01096784 C184.85582147 0.00699994 215.4150571 0.01973408 245.97431233 0.0404944 C273.14330843 0.05886478 300.31227821 0.06467694 327.48127985 0.059223 C329.22571021 0.05887656 330.97014058 0.05853047 332.71457094 0.05818471 C334.00817098 0.05792821 334.00817098 0.05792821 335.32790435 0.05766654 C339.66882189 0.05681304 344.00973944 0.05598925 348.35065699 0.05519754 C349.63516225 0.05496192 349.63516225 0.05496192 350.94561711 0.05472154 C373.62639811 0.05073435 396.30717658 0.05620319 418.98795605 0.06470883 C421.42751377 0.0656159 423.8670715 0.06652155 426.30662923 0.06742406 C427.92506918 0.06802517 429.54350913 0.06863379 431.16194908 0.06924997 C442.46004702 0.07347675 453.75813998 0.07404735 465.05623846 0.07214447 C479.61371569 0.06970496 494.17116623 0.07374533 508.72863615 0.08935448 C516.4331849 0.09742448 524.13768918 0.09999175 531.84224061 0.09471212 C537.58274834 0.09139943 543.3232046 0.09847273 549.0637005 0.1097372 C551.39541011 0.11268288 553.72712688 0.11220656 556.05883473 0.10809412 C559.21100663 0.1030364 562.36291705 0.11010903 565.51507044 0.12042123 C566.43524787 0.11602475 567.35542529 0.11162826 568.30348688 0.10709855 C569.55736953 0.11499344 569.55736953 0.11499344 570.83658314 0.12304783 C571.55794623 0.12340709 572.27930932 0.12376634 573.0225319 0.12413649 C574.91829157 0.37489682 574.91829157 0.37489682 577.91829157 2.37489682 C579.26581713 11.22629021 578.20246496 22.2547518 573.29719782 29.90224057 C570.2261971 33.09426595 566.90081931 35.1892757 563.10579157 37.43739682 C562.32099421 37.90782407 561.53619684 38.37825132 560.72761774 38.86293393 C531.26225804 56.28250763 500.72224819 68.00963733 467.98469782 77.58192807 C467.02406931 77.86343213 466.0634408 78.14493619 465.07370234 78.43497068 C460.2941624 79.83463392 455.51229838 81.2247572 450.72419977 82.59486753 C425.46540919 89.88695061 395.49859199 98.8706475 381.65657282 123.21474057 C377.8586743 130.28091011 374.47705389 137.2728431 373.91829157 145.37489682 C373.83836969 146.51313901 373.75844782 147.6513812 373.67610407 148.82411557 C373.0975042 165.38228237 378.45451535 179.13507845 389.23079157 191.62489682 C402.60066042 205.66661839 418.35872968 213.18075211 436.80745173 218.46083432 C443.02907509 220.33458313 446.36007605 221.85069247 449.91829157 227.37489682 C451.42613302 230.39057973 451.12250269 233.52173716 451.15657282 236.83192807 C451.16464457 237.57190534 451.17271631 238.3118826 451.18103266 239.07428342 C451.1948704 240.64199337 451.20559395 242.20973341 451.21345758 243.77748471 C451.23065179 246.16796315 451.27453506 248.55705141 451.31868219 250.94716245 C451.32881112 252.47124083 451.3373266 253.99533096 451.34407282 255.51942807 C451.36158091 256.23105603 451.37908899 256.94268399 451.39712763 257.67587644 C451.38219615 261.11517906 450.99393565 263.24363506 449.26668024 266.24086362 C445.07671575 270.04837788 440.47850868 270.62449096 434.96494532 270.63216573 C433.20216989 270.64183907 433.20216989 270.64183907 431.40378284 270.65170783 C429.48093598 270.64706202 429.48093598 270.64706202 427.51924372 270.64232236 C426.1365309 270.64606047 424.75382019 270.65066264 423.37111282 270.65605301 C419.57670107 270.6682781 415.78237752 270.66802314 411.98795056 270.66566426 C407.89381968 270.66525598 403.79971702 270.67629612 399.70559931 270.68577939 C391.68725834 270.7023865 383.66894679 270.70788876 375.65059006 270.70900415 C369.13428477 270.70995454 362.61798918 270.71406437 356.10168695 270.7204054 C337.62945288 270.73801521 319.15724205 270.74724441 300.68499953 270.74574445 C299.19148739 270.74562458 299.19148739 270.74562458 297.66780329 270.74550229 C296.17246967 270.74537965 296.17246967 270.74537965 294.6469273 270.74525453 C278.48177273 270.74444119 262.31671124 270.76359177 246.15158361 270.79177903 C229.55599592 270.82048882 212.96045367 270.83432045 196.36484051 270.83259147 C187.04649184 270.83192703 177.72824081 270.83744359 168.40991449 270.85894758 C160.47834648 270.87713409 152.5469204 270.88152741 144.61534059 270.86792873 C140.56797363 270.86138689 136.52087916 270.86132553 132.47353792 270.87863523 C128.76874939 270.89431719 125.06445051 270.89155288 121.35967427 270.87406696 C119.38403512 270.86952643 117.40838106 270.88469238 115.43280029 270.90054625 C104.71151079 270.81663593 104.71151079 270.81663593 99.91829157 266.37489682 C96.38476676 261.64614374 97.58518856 254.81290205 97.60261774 249.15809995 C97.60577127 247.01369953 97.58232583 244.87068872 97.55696344 242.72645932 C97.55468944 241.35146105 97.55398742 239.9764591 97.55501032 238.60145932 C97.55202936 237.35960874 97.5490484 236.11775815 97.54597712 234.83827573 C98.10013536 229.68333222 99.88151875 226.46666228 103.42219782 222.73817807 C107.68957988 219.44537203 112.77685614 218.15028912 117.85579157 216.56239682 C132.45753552 211.72007565 144.41724472 205.82866292 155.91829157 195.37489682 C156.90055719 194.51444761 156.90055719 194.51444761 157.90266657 193.63661557 C166.92803465 185.27017923 175.08765798 171.65871352 176.09529352 159.18349057 C176.55638639 141.34231933 174.34413005 127.46814743 161.85579157 113.74989682 C154.33792319 106.78089937 145.21572178 101.72659522 135.89485407 97.60536557 C135.12627573 97.2651135 134.35769739 96.92486142 133.5658288 96.57429868 C124.45436356 92.62746184 115.08766898 89.41940046 105.70299006 86.19237119 C14.38906888 54.72029393 14.38906888 54.72029393 -6.08170843 31.37489682 C-7.75463015 26.35613167 -7.30822463 21.1293967 -7.33170843 15.87489682 C-7.35233343 14.72118589 -7.37295843 13.56747495 -7.39420843 12.37880307 C-7.39936468 11.27407651 -7.40452093 10.16934995 -7.40983343 9.03114682 C-7.41917913 8.01858823 -7.42852484 7.00602964 -7.43815374 5.96278745 C-6.80934698 1.39747809 -4.42231958 -0.00012545 0 0 Z " fill="#1D1D1C" transform="translate(233.0817084312439,603.6251031756401)"/>
<path d="M0 0 C33.70978381 27.09635489 56.03168325 64.53160686 62.34765625 107.51171875 C67.01881938 151.48998085 53.92132047 192.36301468 26.5546875 226.4921875 C24.35565118 229.21037708 22.14173968 231.91599294 19.921875 234.6171875 C-5.98799918 266.1495968 -11.22336228 279.81871587 -12.3125 325.5625 C-70.7225 325.5625 -129.1325 325.5625 -189.3125 325.5625 C-189.6425 313.3525 -189.9725 301.1425 -190.3125 288.5625 C-194.50973037 271.77357853 -201.46670341 260.53538901 -212.3125 247.5625 C-214.62773379 244.77309439 -216.93957948 241.98089336 -219.25 239.1875 C-219.83942383 238.47513184 -220.42884766 237.76276367 -221.03613281 237.02880859 C-252.22936483 199.15375699 -268.87881262 158.62232087 -265.11035156 108.89501953 C-264.54057453 103.69929803 -263.54044463 98.6397697 -262.3125 93.5625 C-262.01448486 92.32258301 -262.01448486 92.32258301 -261.71044922 91.05761719 C-254.30126201 61.18777031 -239.63521844 35.61628307 -218.3125 13.5625 C-217.69890625 12.89734375 -217.0853125 12.2321875 -216.453125 11.546875 C-194.48265896 -11.72876724 -161.48544257 -26.34042863 -130.3125 -31.4375 C-129.37156494 -31.60596436 -128.43062988 -31.77442871 -127.46118164 -31.94799805 C-83.40078291 -39.4319653 -35.2376493 -27.58495431 0 0 Z " fill="#FEC805" transform="translate(613.3125,260.4375)"/>
<path d="M0 0 C33.70978381 27.09635489 56.03168325 64.53160686 62.34765625 107.51171875 C67.01881938 151.48998085 53.92132047 192.36301468 26.5546875 226.4921875 C24.35565118 229.21037708 22.14173968 231.91599294 19.921875 234.6171875 C-5.98799918 266.1495968 -11.22336228 279.81871587 -12.3125 325.5625 C-70.7225 325.5625 -129.1325 325.5625 -189.3125 325.5625 C-189.6425 313.3525 -189.9725 301.1425 -190.3125 288.5625 C-194.50973037 271.77357853 -201.46670341 260.53538901 -212.3125 247.5625 C-214.62773379 244.77309439 -216.93957948 241.98089336 -219.25 239.1875 C-219.83942383 238.47513184 -220.42884766 237.76276367 -221.03613281 237.02880859 C-252.22936483 199.15375699 -268.87881262 158.62232087 -265.11035156 108.89501953 C-264.54057453 103.69929803 -263.54044463 98.6397697 -262.3125 93.5625 C-262.01448486 92.32258301 -262.01448486 92.32258301 -261.71044922 91.05761719 C-254.30126201 61.18777031 -239.63521844 35.61628307 -218.3125 13.5625 C-217.69890625 12.89734375 -217.0853125 12.2321875 -216.453125 11.546875 C-194.48265896 -11.72876724 -161.48544257 -26.34042863 -130.3125 -31.4375 C-129.37156494 -31.60596436 -128.43062988 -31.77442871 -127.46118164 -31.94799805 C-83.40078291 -39.4319653 -35.2376493 -27.58495431 0 0 Z M-135.3125 -2.4375 C-135.96637695 -2.26589355 -136.62025391 -2.09428711 -137.29394531 -1.91748047 C-171.85705632 7.40206681 -202.36924432 29.33935974 -220.85620117 60.26074219 C-236.83053747 88.0427896 -243.89974133 122.93455038 -235.90332031 154.40039062 C-228.27200026 182.32723788 -213.77929544 202.79001118 -196.078125 225.31298828 C-177.53495177 248.93809865 -165.73644364 267.74700724 -162.3125 298.5625 C-122.0525 298.5625 -81.7925 298.5625 -40.3125 298.5625 C-39.3225 289.1575 -39.3225 289.1575 -38.3125 279.5625 C-33.90564874 263.49045423 -26.65880043 250.53322785 -16.3125 237.5625 C-15.45813301 236.46601275 -14.60531381 235.36831804 -13.75390625 234.26953125 C-9.94913828 229.37499396 -6.11715946 224.50989791 -2.14453125 219.75 C14.64467234 199.59237426 28.03535472 178.46085525 33.6875 152.5625 C34.05488281 150.88220703 34.05488281 150.88220703 34.4296875 149.16796875 C40.17765699 116.60926487 32.54217883 82.87195752 14.8125 55.1875 C10.1960694 48.62537698 5.04168355 42.52893323 -0.3125 36.5625 C-1.01890625 35.77101563 -1.7253125 34.97953125 -2.453125 34.1640625 C-24.73483798 10.60667893 -58.29238482 -4.34403746 -90.66235352 -5.5637207 C-94.5460555 -5.64416827 -98.4280984 -5.68407742 -102.3125 -5.6875 C-103.00191681 -5.68817474 -103.69133362 -5.68884949 -104.40164185 -5.68954468 C-114.99830693 -5.67308712 -125.0134067 -5.14836071 -135.3125 -2.4375 Z " fill="#1D1D1E" transform="translate(613.3125,260.4375)"/>
<path d="M0 0 C0.66631439 -0.00095673 1.33262878 -0.00191345 2.01913452 -0.00289917 C3.41575211 -0.00357459 4.81237296 -0.00176525 6.20898438 0.00244141 C8.33731147 0.00781597 10.46542921 0.00246597 12.59375 -0.00390625 C13.95833379 -0.00324569 15.32291746 -0.00196498 16.6875 0 C17.91549316 0.00112793 19.14348633 0.00225586 20.40869141 0.00341797 C23.30860116 0.11704744 25.89547766 0.46113089 28.7109375 1.1328125 C28.7109375 1.7928125 28.7109375 2.4528125 28.7109375 3.1328125 C27.69257812 3.15859375 26.67421875 3.184375 25.625 3.2109375 C-14.12915792 4.63140753 -47.81355608 23.61320148 -74.64746094 52.30908203 C-91.1777954 70.67338876 -100.80713917 93.30167358 -106.2890625 117.1328125 C-106.505625 118.02355469 -106.7221875 118.91429687 -106.9453125 119.83203125 C-114.16020856 150.23008597 -108.02011073 183.34331957 -96.171875 211.734375 C-95.2890625 214.1328125 -95.2890625 214.1328125 -95.2890625 217.1328125 C-108.20260849 202.40618985 -117.34859026 185.25227984 -123.0390625 166.5703125 C-123.23806152 165.92247803 -123.43706055 165.27464355 -123.64208984 164.60717773 C-126.73457601 153.85249302 -127.65709936 142.97034392 -127.6015625 131.8203125 C-127.59664795 130.64041748 -127.5917334 129.46052246 -127.58666992 128.24487305 C-127.15963944 96.33584116 -113.75964002 66.43522031 -92.2890625 43.1328125 C-91.42667969 42.18792969 -90.56429687 41.24304688 -89.67578125 40.26953125 C-66.97695798 16.49461562 -33.17257617 0.03041363 0 0 Z " fill="#FCDE13" transform="translate(502.2890625,254.8671875)"/>
<path d="M0 0 C17.94284956 -0.04692547 35.88568299 -0.08208878 53.82858086 -0.10362434 C62.16162047 -0.11389383 70.49462174 -0.12787034 78.82763672 -0.15087891 C86.09902256 -0.17094643 93.3703806 -0.18374779 100.64179337 -0.18817699 C104.4843739 -0.19076199 108.32687497 -0.19674509 112.16942978 -0.21146011 C160.41636599 -0.38897064 160.41636599 -0.38897064 168.98046875 6.62109375 C181.48858446 19.43868861 178.13241329 41.29267422 178.0625 57.75 C178.05747502 59.81510308 178.05291388 61.88020735 178.04882812 63.9453125 C178.03790143 68.9635713 178.02069175 73.98177235 178 79 C177.34 79 176.68 79 176 79 C175.84144531 77.8140625 175.68289063 76.628125 175.51953125 75.40625 C171.70039899 48.1527218 171.70039899 48.1527218 156.36328125 26.453125 C146.3353322 20.28717947 134.42092152 18.13794862 123 16 C122.11344727 15.83113281 121.22689453 15.66226563 120.31347656 15.48828125 C101.60129085 12.0233029 82.78826121 10.81097563 63.83235168 9.53684998 C55.58269959 8.97980443 47.33890079 8.36358245 39.09860229 7.68191528 C37.64781559 7.56322487 36.19674896 7.44789413 34.74539185 7.33639526 C22.91742135 6.42641695 11.24129103 4.95570416 0 1 C0 0.67 0 0.34 0 0 Z " fill="#4A4B4B" transform="translate(241,625)"/>
<path d="M0 0 C3.74394623 1.80264078 5.55319676 3.36582765 7.9375 6.75 C9.26866278 10.82179204 9.47709078 14.00063146 8 18 C3.36893296 24.42092686 -2.77478793 29.92118811 -8.36328125 35.49609375 C-9.23647507 36.37024429 -10.10966888 37.24439484 -11.00932312 38.14503479 C-12.84100616 39.97739427 -14.67393635 41.80850784 -16.50805664 43.63842773 C-18.3884643 45.51523402 -20.26746483 47.39330548 -22.14379883 49.27416992 C-24.86013205 51.99665351 -27.57987311 54.71568323 -30.30078125 57.43359375 C-31.14345047 58.2782872 -31.98611969 59.12298065 -32.85432434 59.99327087 C-33.63240952 60.76820389 -34.41049469 61.5431369 -35.2121582 62.34155273 C-35.89719925 63.02579819 -36.5822403 63.71004364 -37.28804016 64.4150238 C-40.55105512 67.43600649 -43.39743879 67.33930555 -47.6796875 67.27734375 C-51.32154351 66.84203773 -53.31259534 65.43146136 -56 63 C-58.6456983 58.94326261 -59.8482629 55.80682308 -59 51 C-55.12932109 43.79368166 -49.57125355 38.14409647 -43.8046875 32.44140625 C-42.93482208 31.57104233 -42.06495667 30.70067841 -41.16873169 29.80393982 C-39.34183558 27.97937056 -37.51127909 26.15845966 -35.67724609 24.34106445 C-32.86765371 21.55521579 -30.07177588 18.75612516 -27.27734375 15.95507812 C-25.49558469 14.17889163 -23.71305931 12.40347346 -21.9296875 10.62890625 C-21.0942038 9.79251114 -20.25872009 8.95611603 -19.3979187 8.09437561 C-18.6167569 7.32274582 -17.83559509 6.55111603 -17.03076172 5.75610352 C-16.34714569 5.07709488 -15.66352966 4.39808624 -14.959198 3.69850159 C-10.3398466 -0.30618588 -5.93251218 -0.82396003 0 0 Z " fill="#1D1D1C" transform="translate(680,177)"/>
<path d="M0 0 C1.11181641 -0.02513672 1.11181641 -0.02513672 2.24609375 -0.05078125 C7.19604316 0.72551773 10.60882878 4.10736291 14.0456543 7.53686523 C14.89971359 8.38462021 15.75377289 9.23237518 16.63371277 10.1058197 C17.54220474 11.01836014 18.45069672 11.93090057 19.38671875 12.87109375 C20.33856013 13.82158645 21.29069812 14.7717822 22.24311829 15.72169495 C24.23248462 17.70812105 26.21820971 19.69809822 28.20141602 21.69067383 C30.74001375 24.24068099 33.28750628 26.78158272 35.83778667 29.31989956 C37.80339657 31.27827438 39.76420819 33.24139771 41.72361183 35.2059803 C43.11575223 36.60009746 44.51191085 37.99019835 45.90812683 39.38023376 C46.75272964 40.2311409 47.59733246 41.08204803 48.4675293 41.95874023 C49.21189743 42.70469955 49.95626556 43.45065887 50.72319031 44.21922302 C54.10133544 48.06381399 55.02396218 51.09215402 54.87890625 56.28515625 C54.19149904 60.68965431 51.62738762 63.42509365 48.3125 66.1875 C44.72030146 67.65703576 41.33840496 68.17966081 37.5625 67.3125 C31.32907898 63.78212582 26.61759896 58.63779857 21.60546875 53.5859375 C20.65273483 52.63200975 19.69962905 51.67845327 18.74617004 50.72525024 C16.75873218 48.73625548 14.77467779 46.74396829 12.79321289 44.74902344 C10.25174535 42.19048603 7.70366324 39.63866221 5.15326977 37.0890255 C3.18933468 35.1248189 1.22801315 33.15802043 -0.7324276 31.19032669 C-2.12796976 29.79005511 -3.52501283 28.39127989 -4.92207336 26.99252319 C-5.76352402 26.14469269 -6.60497467 25.29686218 -7.47192383 24.42333984 C-8.21549637 23.67595551 -8.95906891 22.92857117 -9.72517395 22.15853882 C-13.16558245 18.44947439 -12.76725682 14.88345912 -12.72265625 10.015625 C-12.33783774 6.36775636 -11.19765463 4.68929982 -8.4375 2.3125 C-5.53892216 0.59887536 -3.3611871 0.01747584 0 0 Z " fill="#1C1C1B" transform="translate(348.4375,176.6875)"/>
<path d="M0 0 C3.44072428 2.88060637 5.26945956 4.99587868 6.6875 9.25 C6.7908853 11.12976138 6.83603509 13.01294768 6.84863281 14.89550781 C6.85824036 16.05391174 6.8678479 17.21231567 6.87774658 18.40582275 C6.88199646 19.6589325 6.88624634 20.91204224 6.890625 22.203125 C6.89632507 23.49184509 6.90202515 24.78056519 6.90789795 26.1083374 C6.91839916 28.83866774 6.92424705 31.56896872 6.92773438 34.29931641 C6.93320645 37.78391052 6.95720999 41.26811139 6.98570633 44.75258255 C7.00891029 48.0902553 7.01078791 51.42787583 7.015625 54.765625 C7.0279718 56.01063782 7.0403186 57.25565063 7.05303955 58.53839111 C7.03683874 64.85986062 6.9142444 69.73405013 3.6875 75.25 C0.29649888 78.39878675 -2.33709542 79.50628584 -6.875 79.6875 C-12.07227892 79.425892 -14.83605714 77.80186787 -18.4158783 74.03916931 C-20.70211743 70.67702913 -20.82372447 68.84593392 -20.84594727 64.81079102 C-20.8617836 63.52918594 -20.87761993 62.24758087 -20.89393616 60.92713928 C-20.89009431 59.53605789 -20.88505505 58.14497936 -20.87890625 56.75390625 C-20.884145 55.31810605 -20.8904224 53.88230931 -20.89768982 52.44651794 C-20.90808277 49.44131241 -20.90354959 46.43658069 -20.88891602 43.43139648 C-20.87173653 39.58989976 -20.89521621 35.74989999 -20.93040562 31.90857029 C-20.95242233 28.94441412 -20.95092794 25.98061375 -20.9426403 23.01640129 C-20.94182296 21.60068051 -20.94864497 20.18493303 -20.96341133 18.76928902 C-21.07321489 6.33656902 -21.07321489 6.33656902 -17.88647461 2.42163086 C-12.24554004 -2.33755656 -6.70944631 -3.54461315 0 0 Z " fill="#1D1D1C" transform="translate(519.3125,121.75)"/>
<path d="M0 0 C0 0.33 0 0.66 0 1 C-0.99104736 1.04487549 -1.98209473 1.08975098 -3.00317383 1.13598633 C-48.60833686 2.77472765 -48.60833686 2.77472765 -88.625 23.125 C-102.6293478 34.15224005 -118.21422421 37.21982461 -135.75390625 37.09765625 C-136.93339088 37.09553383 -136.93339088 37.09553383 -138.13670349 37.09336853 C-140.61201015 37.08783672 -143.08722137 37.07529775 -145.5625 37.0625 C-147.25585806 37.05747616 -148.94921755 37.05291481 -150.64257812 37.04882812 C-154.7617547 37.03788978 -158.88086125 37.02067362 -163 37 C-159.61267663 34.74178442 -157.01498364 34.16344703 -153.05078125 33.265625 C-151.63831184 32.9393033 -150.22596266 32.6124609 -148.8137207 32.28515625 C-148.07771637 32.1164502 -147.34171204 31.94774414 -146.58340454 31.77392578 C-125.2589895 26.85411933 -107.42157524 20.10946059 -89.1875 7.75 C-63.26929928 -9.71661353 -29.52845989 -2.98486448 0 0 Z " fill="#4C4D4D" transform="translate(524,800)"/>
<path d="M0 0 C42.9 0 85.8 0 130 0 C130 0.33 130 0.66 130 1 C90.73 1.33 51.46 1.66 11 2 C11 2.33 11 2.66 11 3 C9.54077307 2.88590407 8.08259402 2.75834456 6.625 2.625 C5.40683594 2.52058594 5.40683594 2.52058594 4.1640625 2.4140625 C2 2 2 2 0 0 Z " fill="#616262" transform="translate(241,625)"/>
<path d="M0 0 C0.33 0 0.66 0 1 0 C1.84110031 6.54544844 2.13481564 12.90907443 2.09765625 19.50390625 C2.0962413 20.4677977 2.09482635 21.43168915 2.09336853 22.42478943 C2.08781942 25.47072598 2.07527669 28.51658607 2.0625 31.5625 C2.05747841 33.64127497 2.05291666 35.72005111 2.04882812 37.79882812 C2.03786671 42.86591439 2.0206378 47.93294428 2 53 C1.34 53 0.68 53 0 53 C-0.5339744 49.91879316 -1.04985551 46.83482141 -1.5625 43.75 C-1.71396484 42.87730469 -1.86542969 42.00460937 -2.02148438 41.10546875 C-2.16005859 40.26113281 -2.29863281 39.41679688 -2.44140625 38.546875 C-2.57232666 37.77182617 -2.70324707 36.99677734 -2.83813477 36.19824219 C-3.00822774 33.88826153 -2.68559092 32.19914787 -2 30 C-1.67 30.66 -1.34 31.32 -1 32 C-0.67 21.44 -0.34 10.88 0 0 Z " fill="#555656" transform="translate(417,651)"/>
<path d="M0 0 C-13.88202176 5.35797331 -28.27799527 5.28143889 -42.9375 5.125 C-44.60351016 5.11493544 -46.2695263 5.10581582 -47.93554688 5.09765625 C-51.95718329 5.07595177 -55.97852244 5.04162026 -60 5 C-54.77468437 1.51645625 -49.1868663 0.69065668 -43 1 C-43 1.33 -43 1.66 -43 2 C-24.185626 2.50885815 -24.185626 2.50885815 -5.6953125 -0.44140625 C-3 -1 -3 -1 0 0 Z " fill="#565657" transform="translate(421,832)"/>
<path d="M0 0 C12.8143625 -0.2785731 25.27214397 0.51198343 38 2 C38 2.33 38 2.66 38 3 C25.32106794 3.70199948 12.69872368 4.14978835 0 4 C0 3.67 0 3.34 0 3 C1.98 2.67 3.96 2.34 6 2 C3.03 1.505 3.03 1.505 0 1 C0 0.67 0 0.34 0 0 Z " fill="#585859" transform="translate(486,798)"/>
<path d="M0 0 C0.66 0 1.32 0 2 0 C2 12.21 2 24.42 2 37 C1.67 37 1.34 37 1 37 C0.69018967 31.89173194 0.38718085 26.78312414 0.09057617 21.67407227 C-0.01137622 19.93470272 -0.11521384 18.19544263 -0.22094727 16.45629883 C-0.37226682 13.96201259 -0.51688713 11.46741618 -0.66015625 8.97265625 C-0.70906509 8.19036148 -0.75797394 7.40806671 -0.80836487 6.60206604 C-0.91221344 4.73650663 -0.9617076 2.86805517 -1 1 C-0.67 0.67 -0.34 0.34 0 0 Z " fill="#DBDAD9" transform="translate(422,549)"/>
<path d="M0 0 C4.29 0 8.58 0 13 0 C13 0.66 13 1.32 13 2 C16.63 2.66 20.26 3.32 24 4 C24 4.33 24 4.66 24 5 C16.06603268 5.24923458 8.7558343 4.70994772 1 3 C0.67 2.01 0.34 1.02 0 0 Z " fill="#515252" transform="translate(250,626)"/>
<path d="M0 0 C2.24993359 -0.02707139 4.49996095 -0.04642829 6.75 -0.0625 C8.00296875 -0.07410156 9.2559375 -0.08570313 10.546875 -0.09765625 C13.36927952 -0.01783712 15.33150282 0.29118044 18 1 C20.4138176 1.22117559 22.83114597 1.40572242 25.25 1.5625 C26.51328125 1.64628906 27.7765625 1.73007813 29.078125 1.81640625 C30.04234375 1.87699219 31.0065625 1.93757812 32 2 C32 2.33 32 2.66 32 3 C21.44 3 10.88 3 0 3 C0 2.01 0 1.02 0 0 Z " fill="#2A2929" transform="translate(496,227)"/>
<path d="M0 0 C0.99 0 1.98 0 3 0 C3 10.23 3 20.46 3 31 C2.67 31 2.34 31 2 31 C1.67 25.39 1.34 19.78 1 14 C0.67 14 0.34 14 0 14 C0 9.38 0 4.76 0 0 Z " fill="#292929" transform="translate(348,372)"/>
<path d="M0 0 C0.66 0.33 1.32 0.66 2 1 C-2.95 5.95 -7.9 10.9 -13 16 C-13 12.45930077 -12.50420193 10.21352231 -11 7 C-8.1875 5.9375 -8.1875 5.9375 -5 5 C-2.16540517 2.50041345 -2.16540517 2.50041345 0 0 Z " fill="#0D0D2A" transform="translate(420,286)"/>
<path d="M0 0 C5.28 0 10.56 0 16 0 C14.02 0.99 14.02 0.99 12 2 C11.4225 2.391875 10.845 2.78375 10.25 3.1875 C6.70210212 4.46868535 3.68997912 3.61499652 0 3 C0 2.01 0 1.02 0 0 Z " fill="#454545" transform="translate(480,799)"/>
<path d="M0 0 C0.33 0 0.66 0 1 0 C1.02712351 2.39591038 1.0468982 4.79150957 1.0625 7.1875 C1.07087891 7.86103516 1.07925781 8.53457031 1.08789062 9.22851562 C1.10606538 12.95434131 0.89299392 16.3788042 0 20 C-2.05701803 16.6042877 -2.26969117 13.9382341 -2.25 10 C-2.25515625 8.96875 -2.2603125 7.9375 -2.265625 6.875 C-2.00499165 4.05402722 -1.45296344 2.39854282 0 0 Z " fill="#262625" transform="translate(412,747)"/>
<path d="M0 0 C0.33 0 0.66 0 1 0 C1.05449838 1.72880982 1.09301688 3.45812712 1.125 5.1875 C1.14820313 6.15042969 1.17140625 7.11335938 1.1953125 8.10546875 C0.9913544 11.12812778 0.26874632 13.26769985 -1 16 C-1.66 15.67 -2.32 15.34 -3 15 C-2.35812082 9.86496656 -1.31727753 5.0056546 0 0 Z " fill="#ECDD16" transform="translate(380,349)"/>
<path d="M0 0 C3.21524305 1.40844718 5.32183868 3.10344786 7.75 5.625 C8.67039062 6.57246094 8.67039062 6.57246094 9.609375 7.5390625 C10.29773438 8.26222656 10.29773438 8.26222656 11 9 C10.67 9.99 10.34 10.98 10 12 C9.44570313 11.36191406 8.89140625 10.72382813 8.3203125 10.06640625 C7.23363281 8.82697266 7.23363281 8.82697266 6.125 7.5625 C5.40570312 6.73878906 4.68640625 5.91507812 3.9453125 5.06640625 C2.16761255 2.94017845 2.16761255 2.94017845 0 2 C0 1.34 0 0.68 0 0 Z " fill="#EEEDED" transform="translate(624,269)"/>
<path d="M0 0 C2.31966166 2.84685749 3.91581154 5.4763875 5 9 C4.67 9.99 4.34 10.98 4 12 C3.67 10.68 3.34 9.36 3 8 C2.34 8 1.68 8 1 8 C-0.35439668 5.29120665 -0.06501451 2.99066732 0 0 Z " fill="#111110" transform="translate(661,322)"/>
<path d="M0 0 C0.33 0.66 0.66 1.32 1 2 C-3.95 3.485 -3.95 3.485 -9 5 C-8.67 3.68 -8.34 2.36 -8 1 C-5.07175348 0.02391783 -3.04386724 -0.08226668 0 0 Z " fill="#EDEDEB" transform="translate(348,820)"/>
<path d="M0 0 C0.66 0 1.32 0 2 0 C2 0.99 2 1.98 2 3 C2.66 3 3.32 3 4 3 C4.33 4.98 4.66 6.96 5 9 C4.01 9 3.02 9 2 9 C1.34 6.03 0.68 3.06 0 0 Z " fill="#F0F0EF" transform="translate(669,341)"/>
<path d="M0 0 C0.99 0 1.98 0 3 0 C3 0.66 3 1.32 3 2 C4.98 2 6.96 2 9 2 C9 2.99 9 3.98 9 5 C4.545 4.01 4.545 4.01 0 3 C0 2.01 0 1.02 0 0 Z " fill="#E8E8E7" transform="translate(551,229)"/>
<path d="M0 0 C2.64752004 2.57784846 4.94432065 4.91648098 7 8 C5.68 8 4.36 8 3 8 C0 2.25 0 2.25 0 0 Z " fill="#17182A" transform="translate(424,495)"/>
<path d="M0 0 C3.34373475 0.55728913 6.03312999 1.35173889 9 3 C8.67 3.99 8.34 4.98 8 6 C7.67 5.34 7.34 4.68 7 4 C6.071875 3.7834375 6.071875 3.7834375 5.125 3.5625 C2.63289608 2.90282543 1.6670554 1.91711371 0 0 Z " fill="#EDECEC" transform="translate(366,700)"/>
<path d="M0 0 C4.455 0.99 4.455 0.99 9 2 C8.67 2.66 8.34 3.32 8 4 C5.125 3.6875 5.125 3.6875 2 3 C1.34 2.01 0.68 1.02 0 0 Z " fill="#EDEDEC" transform="translate(325,685)"/>
<path d="M0 0 C0.99 0 1.98 0 3 0 C3 2.64 3 5.28 3 8 C2.01 8.495 2.01 8.495 1 9 C0.67 6.03 0.34 3.06 0 0 Z " fill="#2F2F2F" transform="translate(621,228)"/>
<path d="M0 0 C2.64 0 5.28 0 8 0 C8 0.99 8 1.98 8 3 C5.36 3 2.72 3 0 3 C0 2.01 0 1.02 0 0 Z " fill="#252525" transform="translate(508,120)"/>
<path d="M0 0 C0.625 1.8125 0.625 1.8125 1 4 C0.01 5.485 0.01 5.485 -1 7 C-1.66 7 -2.32 7 -3 7 C-3.99 7.495 -3.99 7.495 -5 8 C-3.62845496 5.04590299 -2.01136276 2.55991624 0 0 Z " fill="#0F0F2A" transform="translate(623,464)"/>
<path d="M0 0 C0.99 0 1.98 0 3 0 C2.67 2.31 2.34 4.62 2 7 C1.01 6.67 0.02 6.34 -1 6 C-0.67 4.02 -0.34 2.04 0 0 Z " fill="#282525" transform="translate(645,417)"/>
<path d="M0 0 C1.85776765 3.13498292 2.20140476 5.37471432 2 9 C1.01 8.34 0.02 7.68 -1 7 C-0.67 4.69 -0.34 2.38 0 0 Z " fill="#EEEDEC" transform="translate(421,540)"/>
<path d="M0 0 C2.64 0.33 5.28 0.66 8 1 C8 1.99 8 2.98 8 4 C5.23723823 3.47731534 2.6739124 2.89130413 0 2 C0 1.34 0 0.68 0 0 Z " fill="#F1F0EE" transform="translate(506,200)"/>
</svg>
